<svg xmlns="http://www.w3.org/2000/svg" id="uuid-e77d6c38-e3eb-4be2-86f4-cad24129017f" viewBox="0 0 120 100"><path d="m70.42,71.21c-9.41,0-18.81,0-28.22,0-.57,0-1.17.05-1.72-.06-1.17-.25-2.02-.75-2.37-2.11-5.09-19.74-10.23-39.46-15.38-59.19-.79-3.05-.82-3.05-3.92-3.04-3.66,0-7.32.08-10.97.02-2.58-.04-3.79-2.05-2.58-4.28.32-.59,1.09-1.09,1.75-1.32.76-.26,1.65-.22,2.48-.22,4.49,0,8.99,0,13.48.02,2.85.02,3.61.59,4.32,3.28,1.02,3.89,2.03,7.77,2.98,11.68.21.89.62,1.23,1.49,1.22,1.62-.02,3.24,0,4.86,0,24.82,0,49.64,0,74.47,0,.42,0,.84,0,1.25.01,2.35.1,3.53,1.58,2.95,3.88-1.57,6.22-3.18,12.43-4.8,18.64-2.4,9.18-4.8,18.36-7.24,27.53-.96,3.62-1.36,3.89-5.09,3.89-9.25.01-18.5,0-27.75,0,0,.01,0,.03,0,.04Zm.06-48.28s0-.03,0-.04c-12.28,0-24.56,0-36.84,0-1.69,0-1.7.06-1.24,1.68,1.16,4.12,2.3,8.24,3.39,12.37,2.36,8.98,4.68,17.97,7.01,26.96.27,1.05.64,1.74,1.97,1.74,17.25-.03,34.49-.02,51.74,0,.89,0,1.35-.19,1.61-1.2,3.4-13.29,6.84-26.56,10.35-39.82.37-1.4.13-1.72-1.28-1.71-12.23.04-24.46.02-36.69.02Z" style="fill:#012168;"></path><path d="m60.88,87.62c-.22,7.39-5.3,11.18-11.03,11.3-7.72.16-11.68-6.23-11.71-11.58-.03-6.16,5.36-11.11,11.7-11.01,6.13.1,11.15,5.23,11.04,11.3Zm-11.35,5.63c2.99.09,5.46-2.37,5.6-5.57.12-2.78-2.44-5.46-5.29-5.55-3.28-.1-5.81,2.2-5.91,5.37-.09,3.1,2.39,5.66,5.59,5.75Z" style="fill:#012168;"></path><path d="m102.93,87.65c-.04,6.04-5.26,11.38-11.08,11.34-6.35-.04-11.78-5.42-11.75-11.63.03-5.78,5.59-11.08,11.61-11.07,6.05,0,11.25,5.27,11.21,11.36Zm-5.86.2c.02-3.27-2.51-5.74-5.9-5.75-2.79-.01-5.21,2.44-5.26,5.32-.06,3.29,2.46,5.82,5.8,5.82,2.92,0,5.33-2.43,5.35-5.39Z" style="fill:#012168;"></path><path d="m78.56,53.6c.64-6.56,1.21-12.53,1.83-18.49.13-1.22.55-2.28,2.03-2.62,1.34-.3,2.42,0,3.19,1.05.36.49.58,1.25.53,1.85-.54,5.81-1.11,11.62-1.78,17.42-.11.95-.45,2.25-1.13,2.66-.82.5-2.26.6-3.15.21-.79-.34-1.18-1.59-1.51-2.09Z" style="fill:#012168;"></path><path d="m62.15,51.49c0,.73.03,1.46,0,2.19-.08,1.54-1.1,2.24-2.47,2.31-1.31.06-2.37-.54-2.58-1.98-.51-3.5-1.04-7.01-1.44-10.53-.31-2.74-.53-5.5-.64-8.26-.08-1.95.75-2.75,2.53-2.85,1.74-.1,2.81.71,3,2.47.6,5.54,1.14,11.09,1.7,16.64-.03,0-.07,0-.1,0Z" style="fill:#012168;"></path></svg>