<svg xmlns="http://www.w3.org/2000/svg" id="uuid-f7e0b8ea-db04-43a1-9208-ba2875a291d8" viewBox="0 0 120 100"><path d="m107.5,81.36c-1.65,3.99-4.07,7.54-6.44,11.1-2.02,3.03-5.25,4.13-8.72,4.67-5.76.89-11.33.05-16.79-1.79-8.34-2.81-15.65-7.45-22.48-12.88-10.96-8.73-20.72-18.65-28.9-30.05-4.36-6.08-7.97-12.57-10.08-19.8-1.26-4.33-1.9-8.75-1.41-13.28.35-3.19.89-6.34,3.18-8.81.77-.83,1.64-1.61,2.6-2.21,2.66-1.69,5.38-3.29,8.09-4.88.65-.38,1.4-.61,2.1-.91.62,0,1.24,0,1.86,0,2.11.55,3.43,1.99,4.58,3.76,3.86,5.89,7.8,11.73,11.7,17.59,1.59,2.39,1.57,4.91-.08,6.96-.36.45-.82.84-1.27,1.21-2.11,1.66-4.24,3.31-6.36,4.96-1.53,1.19-1.72,2.2-.82,3.94,2.59,5.01,5.98,9.44,9.83,13.53,4.78,5.06,9.68,10.01,15.45,13.96,1.88,1.29,3.89,2.39,5.89,3.51,1.36.76,2.46.45,3.48-.84,1.62-2.07,3.22-4.15,4.84-6.22,2.49-3.2,5.36-3.67,8.72-1.43,5.76,3.84,11.5,7.71,17.29,11.5,1.77,1.16,3.21,2.47,3.75,4.58v1.86Zm-18.77,12.98c.76-.08,2.12-.2,3.46-.39,3.25-.45,5.77-1.97,7.41-4.93,1.3-2.35,2.76-4.61,4.13-6.92.98-1.64.7-2.87-.91-3.94-6.11-4.08-12.23-8.16-18.35-12.24-1.68-1.12-2.82-.93-4.07.67-1.7,2.17-3.37,4.35-5.07,6.51-1.97,2.5-4.71,3.08-7.5,1.58-1.47-.79-2.93-1.6-4.34-2.48-5.08-3.15-9.44-7.18-13.66-11.36-5.59-5.54-10.8-11.39-14.44-18.47-1.55-3.02-1.05-5.69,1.64-7.79,2.12-1.65,4.25-3.3,6.36-4.96,1.6-1.25,1.8-2.4.69-4.07-4.09-6.15-8.18-12.29-12.28-18.43-1-1.5-2.27-1.79-3.81-.88-2.49,1.48-4.98,2.99-7.47,4.48-1.99,1.19-3.41,2.85-4.01,5.11-.32,1.22-.54,2.48-.68,3.73-.51,4.31.15,8.5,1.39,12.62,2.03,6.76,5.48,12.82,9.57,18.51,7.25,10.1,15.87,18.94,25.35,26.95,6.54,5.53,13.53,10.38,21.5,13.65,4.64,1.91,9.44,3.09,15.09,3.04Z" style="fill:#012168;"></path><path d="m67.92,15.27c12.89.57,24.57,9.81,27.65,23.17.48,2.06.59,4.21.79,6.33.12,1.27-.48,2.01-1.46,2.06-.99.05-1.54-.72-1.7-2.01-.29-2.35-.45-4.76-1.09-7.02-2.07-7.32-6.62-12.74-13.31-16.34-3.53-1.9-7.33-2.91-11.35-3.03-.46-.01-.93-.06-1.38-.14-.81-.14-1.25-.66-1.27-1.47-.02-.81.38-1.4,1.19-1.52.63-.1,1.29-.02,1.93-.02Z" style="fill:#012168;"></path><path d="m67.31,24.72c10.75.51,19.35,9.32,19.58,20.09.03,1.23-.56,2.01-1.54,2.03-.96.02-1.55-.71-1.62-1.97-.42-7.13-3.81-12.31-10.25-15.44-1.93-.94-4.01-1.42-6.17-1.51-.4-.02-.8-.05-1.2-.12-.89-.17-1.37-.77-1.33-1.61.04-.82.62-1.39,1.51-1.46.34-.03.68,0,1.02,0Z" style="fill:#012168;"></path><path d="m66.9,34.21c5.62.18,10.46,5.11,10.51,10.72,0,1.1-.57,1.84-1.49,1.9-.86.06-1.57-.58-1.65-1.63-.19-2.46-1.07-4.54-3.04-6.11-1.22-.97-2.6-1.52-4.15-1.68-.34-.03-.68-.05-1.01-.12-.89-.21-1.34-.81-1.28-1.65.06-.82.65-1.36,1.54-1.42.18-.01.37,0,.56,0Z" style="fill:#012168;"></path></svg>