<svg xmlns="http://www.w3.org/2000/svg" id="uuid-a7a2613c-a7ea-4bcd-88ae-1884bb82a040" viewBox="0 0 120 100"><path d="m81.56,61.93c5.75,0,11.5,0,17.26,0,1.88,0,2.58.74,2.57,2.6-.03,10.1-.04,20.2-.06,30.31,0,.91-.04,1.82-.08,2.73-.06,1.36-.55,1.95-1.91,1.99-2.38.06-4.77.04-7.15,0-.91-.02-1.77-.89-1.84-1.73-.08-.86.49-1.71,1.52-1.83,1.49-.17,3-.19,4.51-.16.97.02,1.31-.22,1.31-1.28-.05-9.19-.04-18.38,0-27.57,0-1.02-.27-1.29-1.28-1.29-9.85.03-19.71.01-29.56,0-.35,0-.74-.09-1.04.04-.3.13-.69.44-.73.72-.1.69-.02,1.4-.02,2.1,0,8.66.03,17.33,0,25.99,0,.99.31,1.27,1.25,1.27,5.23-.02,10.45,0,15.68,0,.56,0,1.12.06,1.67.16.79.15,1.35.52,1.37,1.45.03.95-.29,1.66-1.24,1.95-.46.14-.96.19-1.45.19-6.17.01-12.35.01-18.52,0-1.83,0-2.53-.69-2.53-2.56,0-10.94,0-21.89,0-32.83,0-1.51.57-2.17,2.18-2.21,3.26-.08,6.52-.03,9.78-.03,2.77,0,5.54,0,8.31,0,0,0,0,0,0-.01Z" style="fill:#012168;"></path><path d="m57.92,41.64c0-3.96.08-7.92-.04-11.88-.05-1.77.69-2.82,2.12-3.63,3.93-2.22,7.84-4.48,11.77-6.7,3.47-1.96,6.97-3.88,10.45-5.82,1.31-.73,2.67-.08,2.83,1.36.08.73.15,1.47.15,2.2.03,7.43.04,14.86.06,22.29,0,.21-.04.43,0,.63.56,2.16-.6,3.22-2.37,4.16-5.34,2.85-10.61,5.84-15.91,8.75-1.87,1.03-3.76,2.03-5.66,2.99-2.04,1.03-3.19.32-3.19-1.94-.01-4.14,0-8.27,0-12.41-.07,0-.14,0-.21,0Zm23.38-23.09c-.38.16-.63.24-.86.36-5.97,3.29-11.94,6.6-17.93,9.87-.57.31-.83.61-.82,1.28.08,6.76.13,13.52.2,20.29,0,.3.06.59.09.95.23-.07.37-.08.48-.15,2.59-1.45,5.18-2.92,7.77-4.37,3.36-1.88,6.71-3.78,10.11-5.58.82-.44,1.19-.85,1.17-1.81-.11-6.41-.15-12.82-.22-19.23,0-.48,0-.96,0-1.6Z" style="fill:#012168;"></path><path d="m17,45.3c3.93,0,7.85.02,11.78-.01.95,0,1.68.33,2.32,1.01,4.69,4.97,9.39,9.92,14.08,14.89.48.51.95,1.04,1.31,1.63.83,1.35.14,2.67-1.45,2.86-.35.04-.7.02-1.05.02-7.71,0-15.42.03-23.13-.01-.58,0-1.31-.3-1.72-.71-3.89-3.94-7.74-7.92-11.57-11.92-1.43-1.49-2.75-3.08-4.13-4.63-.56-.63-.77-1.31-.43-2.12.34-.83,1.04-1,1.8-1,4.07-.01,8.13,0,12.2,0,0,0,0,0,0,0Zm-7.89,3.74c4.07,4.29,7.96,8.41,11.88,12.5.24.25.74.37,1.12.38,5.74.03,11.49.02,17.23.02.26,0,.51-.05.96-.1-.43-.5-.74-.88-1.06-1.23-3.34-3.59-6.7-7.15-10.02-10.76-.55-.6-1.11-.84-1.91-.83-5.01.03-10.02.02-15.02.02-1,0-2.01,0-3.18,0Z" style="fill:#012168;"></path><path d="m58.48,25.29c-.62,1.26-1.16,2.35-1.7,3.46-5.97-3.42-12.06-6.92-18.39-10.55,0,.84,0,1.44,0,2.05.03,6.35.08,12.69.08,19.04,0,.8.2,1.3.91,1.69,4.85,2.67,9.68,5.37,14.51,8.06.98.54,1.95,1.09,2.91,1.67.18.11.4.36.4.56.04,1.21.02,2.42.02,3.86-.76-.39-1.32-.65-1.85-.94-5.12-2.82-10.24-5.65-15.35-8.48-1.38-.76-2.73-1.57-4.09-2.36-.76-.43-1.2-1.05-1.23-1.94-.03-1.09-.13-2.17-.13-3.25-.01-7.29,0-14.59,0-21.88,0-.25,0-.49.01-.74.13-1.93,1.65-2.75,3.33-1.81,2.2,1.23,4.41,2.45,6.6,3.68,4.61,2.59,9.22,5.18,13.83,7.78.12.07.21.17.15.12Z" style="fill:#012168;"></path><path d="m60.72,99.54c-.37.02-.78.05-1.2.05-12.63,0-25.25,0-37.88,0-.56,0-1.12-.06-1.66-.19-.76-.18-1.19-.68-1.22-1.5-.05-1.37-.18-2.73-.18-4.1-.02-9.05-.02-18.1-.02-27.15,0-.1.04-.2.07-.35,1.08.11,2.15.16,3.19.36.22.04.48.61.48.94.04,3.47.03,6.94.03,10.42,0,5.44,0,10.87,0,16.31,0,1.47.03,1.5,1.56,1.49,11.99-.01,23.99-.03,35.98-.04.13,0,.27.04.4.06.15,1.19.29,2.35.46,3.69Z" style="fill:#012168;"></path><path d="m102.58,63.49c-.89-.97-1.71-1.86-2.67-2.9,3.47-3.65,7.11-7.49,10.86-11.45-.4-.04-.69-.08-.98-.09-5.72-.02-11.43-.02-17.15-.05-.76,0-1.28.26-1.8.83-3.34,3.64-6.73,7.25-10.11,10.84-.22.23-.59.43-.89.44-1.43.05-2.86.02-4.29.02-.07-.11-.14-.21-.21-.32.63-.7,1.23-1.42,1.88-2.11,3.67-3.86,7.43-7.64,10.98-11.62,1.23-1.39,2.44-1.87,4.23-1.85,7.33.09,14.66.04,21.99.04.39,0,.84-.11,1.14.05.58.31,1.31.69,1.52,1.23.19.48-.02,1.38-.39,1.79-4.67,5.08-9.4,10.11-14.11,15.14Z" style="fill:#012168;"></path><path d="m82.36,12.61c-1.28.71-2.29,1.33-3.36,1.84-.31.15-.84.11-1.15-.07-4.22-2.35-8.42-4.74-12.62-7.12-1.22-.69-2.48-1.32-3.63-2.12-1.11-.77-2.09-.86-3.26-.11-1.44.93-2.98,1.71-4.48,2.53-.78.43-1.56.62-2.3-.14-.9-.93-.88-2.08.23-2.76,2.33-1.42,4.69-2.8,7.1-4.08.51-.27,1.42-.25,1.95.02,3.26,1.7,6.46,3.51,9.67,5.3,3.64,2.02,7.28,4.06,10.91,6.09.26.14.49.32.91.6Z" style="fill:#012168;"></path><path d="m41.88,82.74c-3.71,0-7.43,0-11.14,0-.55,0-1.14-.04-1.65-.23-.83-.31-1.23-.95-1.16-1.9.07-.96.54-1.49,1.47-1.6.66-.08,1.32-.16,1.99-.16,7.18-.02,14.37-.02,21.55-.01.52,0,1.06.03,1.55.19.79.26,1.29.85,1.29,1.73,0,.89-.41,1.57-1.31,1.81-.46.12-.96.17-1.45.17-3.71.01-7.43,0-11.14,0Z" style="fill:#012168;"></path><path d="m81.46,82.72c-2.24,0-4.49.01-6.73,0-.63,0-1.28-.03-1.87-.19-.89-.25-1.48-.91-1.43-1.84.05-.92.63-1.55,1.59-1.69.66-.09,1.33-.12,1.99-.12,4.38-.02,8.76-.02,13.14-.02.52,0,1.05.08,1.57.09,1.07.02,1.48.73,1.57,1.63.09.87-.19,1.62-1.15,1.86-.54.14-1.09.27-1.64.28-2.35.03-4.7.01-7.04.01,0,0,0,0,0,0Z" style="fill:#012168;"></path><path d="m47.05,65.71c1.02-1.28.45-2.55.07-3.85h13.64c-.13,1.19-.23,2.35-.44,3.48-.03.18-.61.36-.93.36-3.36.02-6.72,0-10.09,0-.69,0-1.37,0-2.26,0Z" style="fill:#012168;"></path><path d="m37.38,12.53c1.29-.72,2.34-1.32,3.39-1.9.58-.32,1.16-.65,1.74-.96,1.25-.67,2.2-.41,2.84.77.5.93.08,2.02-.98,2.6-.77.42-1.51.88-2.29,1.28-.33.16-.81.39-1.07.26-1.17-.57-2.28-1.26-3.64-2.04Z" style="fill:#012168;"></path></svg>