<svg xmlns="http://www.w3.org/2000/svg" id="uuid-b285cd26-dc2b-44f2-90ba-74ee82311a33" viewBox="0 0 120 100"><path d="m62.55,1.55c1.9.51,4.17.98,6.35,1.72,5.22,1.76,8.92,5.37,11.67,10.03,4.21,7.14,3.83,14.6,1.49,22.2-2.46,7.97-6.37,15.26-10.59,22.39-2.86,4.83-5.91,9.55-8.87,14.31-.11.18-.22.35-.34.52-1.65,2.29-3.12,2.29-4.59-.1-3.61-5.84-7.3-11.64-10.72-17.59-3.71-6.45-7.24-13.02-9.23-20.27-1.45-5.3-2.08-10.61-.63-16.01.69-2.56,1.83-4.89,3.46-7,3.51-4.56,7.85-7.9,13.47-9.39,1.3-.34,2.67-.43,4.14-.66m1.83,66.14c.43-.54.77-.88,1.02-1.29.82-1.3,1.59-2.64,2.41-3.94,5.12-8.15,9.94-16.44,13.24-25.53,1.69-4.65,2.98-9.38,2.36-14.39-1.54-12.42-14.94-20.06-26.42-15.11-8.38,3.61-13.02,12.37-11.43,21.26.96,5.38,2.69,10.51,5.18,15.3,3.48,6.67,7.32,13.14,11.04,19.68.75,1.32,1.65,2.56,2.59,4.01Z" style="fill:#012168;"></path><path d="m39.79,57.26c-2.62.85-5.12,1.7-7.65,2.48-3.21,1-6.44,1.96-9.67,2.89-1.03.3-1.69.86-2.2,1.82-3.24,6.1-6.54,12.16-9.8,18.25-1.07,2.01-2.05,4.06-3.14,6.24.36-.02.6.02.8-.05,7.29-2.69,14.57-5.41,21.87-8.08.94-.34,1.5-.92,1.93-1.78,2.43-4.88,4.88-9.75,7.34-14.61.22-.44.45-.9.78-1.27.85-.97,2.17-1.12,3.15-.43.9.63,1.1,1.72.5,2.9-1.75,3.45-3.52,6.89-5.28,10.33-.68,1.33-1.33,2.69-2.1,3.97-.54.91-.34,1.41.55,1.87,2.51,1.3,5.01,2.62,7.5,3.96,4.17,2.25,8.33,4.52,12.5,6.78.18.1.37.17.71.31.06-.38.15-.68.15-.98.01-3,.02-6,0-9,0-2.13.72-3.07,2.39-3.03,1.44.03,2.12,1,2.12,3.07,0,3,0,6,0,9,0,.31.05.62.08,1.1,2.35-1.29,4.56-2.51,6.77-3.72,4.53-2.48,9.02-5,13.6-7.38,1.23-.64,1.12-1.15.59-2.19-2.38-4.72-4.71-9.46-6.95-14.24-.3-.64-.28-1.77.11-2.29.4-.53,1.49-.91,2.16-.77.67.14,1.38.89,1.74,1.56,1.58,2.97,3.03,6.02,4.54,9.03,1.07,2.12,2.2,4.2,3.24,6.33.56,1.15,1.62,1.49,2.68,1.87,4.86,1.72,9.73,3.41,14.58,5.14,2.38.85,4.73,1.77,7.41,2.78-.25-.57-.36-.89-.51-1.18-3.18-5.94-6.36-11.88-9.55-17.81-1.12-2.09-2.26-4.17-3.43-6.23-.18-.31-.57-.59-.92-.7-5.63-1.77-11.27-3.53-16.91-5.24-1.03-.31-1.55-.7-.98-1.83.22-.43.28-.95.4-1.44.39-1.52.48-1.6,1.92-1.15,5.99,1.87,11.99,3.73,17.96,5.67.71.23,1.48.85,1.84,1.5,2.83,5.09,5.59,10.22,8.33,15.36,2.76,5.17,5.48,10.37,8.19,15.57.32.6.66,1.33.61,1.96-.13,1.61-1.37,2.31-3,1.73-5.25-1.86-10.49-3.74-15.73-5.65-4.26-1.55-8.49-3.16-12.76-4.67-.55-.19-1.34-.12-1.87.14-2.16,1.06-4.28,2.23-6.39,3.38-4.28,2.32-8.54,4.67-12.82,6.98-1.94,1.05-3.87,2.14-5.89,2.99-.74.31-1.85.25-2.6-.07-2.09-.9-4.11-1.98-6.12-3.07-4.31-2.34-8.6-4.72-12.9-7.08-2.04-1.12-4.07-2.27-6.15-3.3-.48-.24-1.24-.23-1.76-.04-4.5,1.61-8.96,3.32-13.46,4.94-4.97,1.78-9.96,3.5-14.94,5.24-.95.33-1.88.34-2.67-.45-.8-.8-.4-1.68-.03-2.44,1.61-3.29,3.23-6.57,4.95-9.8,3.34-6.28,6.85-12.47,10.09-18.81,1.39-2.72,3.01-4.46,6.23-5.24,5.23-1.26,10.29-3.27,15.41-4.99.83-.28,1.3-.25,1.5.77.19,1,.6,1.97.95,3.07Z" style="fill:#012168;"></path><path d="m73.33,25.34c.1,8.03-6.94,13.37-14.12,13.19-6.46-.17-12.7-7.07-12.53-13.73.2-7.74,6.81-12.97,13.99-12.87,7.12.1,12.89,6.32,12.67,13.42Zm-13.44,8.48c4.62.24,8.82-3.61,8.85-8.69.03-4.68-4.03-8.63-8.73-8.63-4.69,0-8.77,4.08-8.75,8.76.02,4.61,4.01,8.57,8.63,8.56Z" style="fill:#012168;"></path></svg>